@startuml diagrama_clases

abstract class Persona{
    -id: int
    -nombre: String
    -apellido: String
    -ci: String
    -ruc: String
    -direccion: String
    -celular: String
    -email: String
    -estado: String
    -usuarioAlta: String
    -fechaAlta: Datetime
    -usuarioModificacion: String
    -fechaModificacion: Datetime
}

' Definición de roles de usuario
class Usuario extends Persona {
    -nombre_usuario: String
    -contraseña: String
    -rol: Rol
    +autenticar()
    +autorizar()
}

class Rol {
    -id: int
    -nombre: String
    +permisos: List<Permiso>
}

class Permiso {
    -id: int
    -nombre: String
    +descripcion: String
}

class Administrador extends Usuario

class Tecnico extends Usuario

class Proveedor extends Persona {
    -nombre_comercial: String
    +crear()
    +modificar()
}

class Cliente{
    -tipo: String
    +crear()
    +modificar()
}
note right of Cliente::tipo
    Fisica, Juridica
end note

' Programación y modificación de citas en línea
class Cita {
    -id: int
    -fechahora: Datetime
    -vehiculo: Vehiculo
    -estado: String
    -usuarioAlta: String
    -fechaAlta: Datetime
    -usuarioModificacion: String
    -fechaModificacion: Datetime
    +programar()
    +modificar()
    +cancelar()
}

class Agenda {
    -citas: List<Cita>
    +visualizarDisponibilidad()
}

' Automatización de órdenes de trabajo
class OrdenTrabajo {
    -id: int
    -fechaCreacion: Date
    -vehiculo: Vehiculo
    -tecnico: Tecnico
    -estado: String
    -descripcion: String
    -presupuesto: Presupesto
    -usuarioAlta: String
    -fechaAlta: Datetime
    -usuarioModificacion: String
    -fechaModificacion: Datetime
    -ordenTrabajodetalle:List<OrdenTrabajoDetalle>
    +crear()
    +modificar()
    +cerrar()
    +consultar()
}

class OrdenTrabajoDetalle{
    -id: int
    -articulo:Articulo
    -cantidad:int
    +crear()
    +modificar()
}

class Factura {
    -id: int
    -condicion: String
    -talonario: Talonario
    -fecha: Date
    -cliente: Cliente
    -total: double
    -gravadas: double
    -exentas: double
    -totalIva: double
    -estado: String
    -usuarioAlta: String
    -fechaAlta: Datetime
    -usuarioModificacion: String
    -fechaModificacion: Datetime
    -cobro: List<Cobro>
    -itemsFactura: List<ItemFactura>
    +generar()
    +enviar()
    +anular()
}

class ItemFactura {
    -id: int
    -articulo: Articulo
    -precioUnitario: double
    -cantidad: int
    -precioTotalIva10: double
    -precioTotalExentas: double
    -precioTotalIva5: double
    -iva: Iva
    +crear()
    +modificar()
    +eliminar()
}

class Iva {
    -id: int
    -descripcion: String
    -valor: float
    -estado: String
    -usuarioAlta: String
    -fechaAlta: Datetime
    -usuarioModificacion: String
    -fechaModificacion: Datetime
    +crear()
    +modificar()
    +eliminar()
}

class Talonario {
    -tipo: String
    -punto_expedicion: String
    -nro_inicial: double
    -nro_final: double
    -timbrado: String
    -inicio_vigencia: Date
    -fin_vigencia: Date
    -estado: String
    -autoimpreso: String
    -usuarioAlta: String
    -fechaAlta: Datetime
    -usuarioModificacion: String
    -fechaModificacion: Datetime
    +crear()
    +modificar()
}

' Gestión de inventario
class Inventario {
    -id:int
    -items: List<ItemIventario>
    -fechaInicial: Datetime
    -fechaFinal: Datetime
    -estado: String
    -observacion: String
    -usuarioAlta: String
    -fechaAlta: Datetime
    -usuarioModificacion: String
    -fechaModificacion: Datetime
    +monitorearStock()
    +generarOrdenCompra()
}

class ItemInventario {
    -id: int
    -articulo: Articulo
    -cantidad: int
    +crear()
    +modificar()
    +eliminar()
}

class ArticuloStock{
    -id: int
    -cantidad: int
    -estado: String
    -lote: String
    -fechaVencimiento: Datetime
    -usuarioAlta: String
    -fechaAlta: Datetime
    -usuarioModificacion: String
    -fechaModificacion: Datetime
    +crear()
    +actualizar()
}

class Categoria{
    -id: int
    -nombre: String
    -descripcion: String
    -estado: String
    -usuarioAlta: String
    -fechaAlta: Datetime
    -usuarioModificacion: String
    -fechaModificacion: Datetime
    +crear()
    +actualizar()
}

class Articulo {
    -id: int
    -descripcion: String
    -categoria: Categoria
    -estado: String
    -precioVenta: double
    -preciocosto: double
    -cantidadMinima: int
    -usuarioAlta: String
    -fechaAlta: Datetime
    -usuarioModificacion: String
    -fechaModificacion: Datetime
    +crear()
    +modificar()
    +merma()
}

class Reporte {
    -id: int
    -titulo: String
    -contenido: String
    +generar()
}

class Presupuesto{
    -id:int
    -cliente:Cliente
    -fecha:Datetime
    -valides:Datetime
    -presupuestoDetallet:List<PresupuestoDetalle>
    -total:double
    -condiciones:String
    -estado:String
    -usuarioAlta: String
    -fechaAlta: Datetime
    -usuarioModificacion: String
    -fechaModificacion: Datetime
    +crear()
    +consultar()
    +actualizar()
}

class PresupuestoDetalle{
    -id:int
    -articulo:Articulo
    -cantidad:int
    -precio:double
    +crear()
}

class Egresos{
    -id:int
    -periodo:Datetime
    -referencia: String
    -total:double
    -estado: String
    -usuarioAlta: String
    -fechaAlta: Datetime
    -usuarioModificacion: String
    -fechaModificacion: Datetime
    +crear()
    +consultar()
}

class DetalleEgreso{
    -id:int
    -description:String
    -monto:double
    -rubro:String
    +crear()
    +modificar()
}

class Vehiculo {
    -id: int
    -tipo: String
    -marca: String
    -modelo: String
    -año: int
    -patente: String
    -vin: String
    -nro_motor: String
    -nro_chasis: String
    -color: String
    -kilometraje: int
    -propietario: Cliente
    -estado: String
    -fecha_ultima_revision: Date
    -comentarios: String
    -usuarioAlta: String
    -fechaAlta: Datetime
    -usuarioModificacion: String
    -fechaModificacion: Datetime
    +crear()
    +modificar()
}

class Recibo {
    -id: int
    -fecha: Date
    -cliente: Cliente
    -total: double
    -estado: String
    -usuarioAlta: String
    -fechaAlta: Datetime
    -usuarioModificacion: String
    -fechaModificacion: Datetime
    -cobro: List<Cobro>
    -detalleRecibo: List<DetalleRecibo>
    +crear()
    +anular()
    +consultar()
}

class DetalleRecibo {
    -id: int
    -factura: Factura
    -monto: double
    +crear()
    +modificar()
    +eliminar()
}

class Cobro {
    -id: int
    -formaCobro: String
    -nroDocumento: String
    -monto: double
    -estado: String
    -usuarioAlta: String
    -fechaAlta: Datetime
    -usuarioModificacion: String
    -fechaModificacion: Datetime
    +crear()
    +modificar()
    +eliminar()
}

' Relaciones
Rol "1" -- "1..*" Permiso: contiene
Usuario "1" -- "1" Rol: tiene
Usuario  --  Cliente: gestiona
Usuario "1" -- "1..*" Cita: programa
Usuario "1" -- "1..*" Factura: gestiona
Usuario  --  Presupuesto: gestiona
Cliente "1" -- "1..*" Vehiculo: tiene
Vehiculo "1" -- "1..*" Cita: tiene
OrdenTrabajo "1" -- "1..*" Tecnico: asigna
OrdenTrabajo "1" -- "0..1" Factura: tiene
OrdenTrabajo "0..1" -- "1" Presupuesto: tiene
Factura "0..1" -- "0..1" Presupuesto: tiene
Factura "1" -- "1" Talonario: usa
Factura "1" -- "1..*" ItemFactura: contiene
ItemFactura "1..*" -- "1" Articulo: contiene
ItemFactura "1" -- "1" Iva: contiene
Cita "1" -- "1" OrdenTrabajo: crea
Inventario "1" -- "1..*" ItemInventario: contiene
Articulo "1" -- "1" ArticuloStock: contiene
Presupuesto "1" -- "1..*" PresupuestoDetalle: contiene
PresupuestoDetalle "1..*" -- "1" Articulo: contiene
Egresos "1" -- "1..*"DetalleEgreso: contiene
Categoria "1" -- "0..*"Articulo: tiene
ItemInventario "1..*" -- "1" Articulo: tiene
OrdenTrabajo "1" -- "1..*" OrdenTrabajoDetalle
Agenda "1..*" -- "1" Cita: tiene
Recibo "1" -- "1..*" DetalleRecibo: tiene
Factura "1" -- "1..*" Cobro: tiene
Recibo "1" -- "1..*" Cobro: tiene
Administrador "1" -- "0..*" Reporte: Gestiona
Administrador "1" -- "0..*" Egresos: Gestiona
@enduml